<svg width="40" height="40" viewBox="0 0 40 40" fill="none" xmlns="http://www.w3.org/2000/svg">
<g clip-path="url(#clip0_1_19)">
<path d="M28.3333 30C28.3333 28.6739 27.8065 27.4021 26.8689 26.4645C25.9312 25.5268 24.6594 25 23.3333 25C22.0072 25 20.7355 25.5268 19.7978 26.4645C18.8601 27.4021 18.3333 28.6739 18.3333 30H21.6667C21.6667 29.558 21.8423 29.134 22.1548 28.8215C22.4674 28.5089 22.8913 28.3333 23.3333 28.3333C23.7754 28.3333 24.1993 28.5089 24.5118 28.8215C24.8244 29.134 25 29.558 25 30C25 30.8333 23.5833 31.8967 22.3333 32.8333C20.4583 34.24 18.3333 35.8333 18.3333 38.3333V40H28.3333V36.6667H22.85C23.3017 36.2733 23.8317 35.8767 24.3333 35.5C26.2083 34.0933 28.3333 32.5 28.3333 30Z" fill="white"/>
<path d="M36.6667 31.6667H33.3333V25H30V31.6667C30 32.5507 30.3512 33.3986 30.9763 34.0237C31.6014 34.6488 32.4493 35 33.3333 35H36.6667V40H40V25H36.6667V31.6667Z" fill="white"/>
<path d="M21.6667 10H18.3333V18.3333H11.6667V21.6667H21.6667V10Z" fill="white"/>
<path d="M36.6667 3.33325V8.95659C34.8772 6.25026 32.456 4.02012 29.612 2.45869C26.768 0.89726 23.5868 0.0514609 20.3428 -0.00568699C17.0989 -0.0628349 13.8898 0.670386 10.9926 2.13067C8.09541 3.59096 5.59713 5.73444 3.71348 8.37605C1.82982 11.0177 0.617381 14.078 0.180837 17.293C-0.255708 20.5079 0.0967591 23.7807 1.20781 26.829C2.31886 29.8772 4.1551 32.6093 6.55801 34.7893C8.96093 36.9692 11.8583 38.5316 15 39.3416V35.8982C12.4088 35.0923 10.0537 33.6658 8.13911 31.7427C6.22454 29.8197 4.80848 27.4583 4.01396 24.8636C3.21943 22.2689 3.07048 19.5194 3.58003 16.8541C4.08958 14.1887 5.24223 11.6881 6.93784 9.56949C8.63345 7.45086 10.8207 5.77829 13.3096 4.69709C15.7986 3.61589 18.5138 3.15877 21.2196 3.36544C23.9253 3.5721 26.5396 4.43631 28.8355 5.88298C31.1313 7.32964 33.0392 9.31501 34.3933 11.6666H28.3333V14.9999H36.6667C37.5507 14.9999 38.3986 14.6487 39.0237 14.0236C39.6488 13.3985 40 12.5506 40 11.6666V3.33325H36.6667Z" fill="white"/>
</g>
<defs>
<clipPath id="clip0_1_19">
<rect width="40" height="40" fill="white"/>
</clipPath>
</defs>
</svg>
